<svg width="1200" height="640" viewBox="0 0 1200 640" fill="none" xmlns="http://www.w3.org/2000/svg">
  <defs>
    <linearGradient id="bg" x1="0" y1="0" x2="1200" y2="640">
      <stop stop-color="#0F1117"/>
      <stop offset="1" stop-color="#181B28"/>
    </linearGradient>
    <linearGradient id="node" x1="0" y1="0" x2="1" y2="1">
      <stop stop-color="#242736"/>
      <stop offset="1" stop-color="#171A25"/>
    </linearGradient>
    <marker id="arrow" viewBox="0 0 10 10" refX="8" refY="5" markerWidth="8" markerHeight="8" orient="auto-start-reverse">
      <path d="M 0 0 L 10 5 L 0 10 z" fill="#6366F1"/>
    </marker>
  </defs>
  <rect width="1200" height="640" rx="28" fill="url(#bg)"/>
  <text x="78" y="78" fill="#E4E6F0" font-family="Inter,Segoe UI,Arial,sans-serif" font-size="34" font-weight="800">How AIX MCP Server Fits Together</text>
  <text x="78" y="112" fill="#8B8FA8" font-family="Inter,Segoe UI,Arial,sans-serif" font-size="16">One server, multiple transports, unified service management, and safe discovery.</text>
  <g stroke="#6366F1" stroke-width="3" marker-end="url(#arrow)" opacity="0.75">
    <path d="M275 230 H435"/>
    <path d="M275 410 H435"/>
    <path d="M610 320 H760"/>
    <path d="M920 246 H1010"/>
    <path d="M920 320 H1010"/>
    <path d="M920 394 H1010"/>
  </g>
  <g font-family="Inter,Segoe UI,Arial,sans-serif">
    <rect x="78" y="172" width="198" height="116" rx="18" fill="url(#node)" stroke="#2E3148"/>
    <text x="112" y="218" fill="#E4E6F0" font-size="20" font-weight="800">MCP Clients</text>
    <text x="112" y="250" fill="#8B8FA8" font-size="14">Cursor / Claude</text>
    <rect x="78" y="352" width="198" height="116" rx="18" fill="url(#node)" stroke="#2E3148"/>
    <text x="112" y="398" fill="#E4E6F0" font-size="20" font-weight="800">Web Users</text>
    <text x="112" y="430" fill="#8B8FA8" font-size="14">Dashboard / API</text>
    <rect x="436" y="228" width="178" height="184" rx="22" fill="#1E2130" stroke="#6366F1"/>
    <text x="474" y="290" fill="#E4E6F0" font-size="24" font-weight="800">AIX MCP</text>
    <text x="472" y="324" fill="#A5B4FC" font-size="15" font-weight="700">stdio + HTTP</text>
    <text x="472" y="356" fill="#8B8FA8" font-size="14">Tools</text>
    <text x="528" y="356" fill="#8B8FA8" font-size="14">Resources</text>
    <text x="472" y="386" fill="#8B8FA8" font-size="14">Registry</text>
    <rect x="762" y="178" width="160" height="96" rx="18" fill="url(#node)" stroke="#2E3148"/>
    <text x="800" y="218" fill="#E4E6F0" font-size="18" font-weight="800">Plugins</text>
    <text x="792" y="248" fill="#8B8FA8" font-size="13">TS + JSON</text>
    <rect x="762" y="292" width="160" height="96" rx="18" fill="url(#node)" stroke="#2E3148"/>
    <text x="804" y="332" fill="#E4E6F0" font-size="18" font-weight="800">Proxy</text>
    <text x="790" y="362" fill="#8B8FA8" font-size="13">Remote MCP</text>
    <rect x="762" y="406" width="160" height="96" rx="18" fill="url(#node)" stroke="#2E3148"/>
    <text x="800" y="446" fill="#E4E6F0" font-size="18" font-weight="800">Security</text>
    <text x="794" y="476" fill="#8B8FA8" font-size="13">S1-S4 Sandbox</text>
    <rect x="1012" y="190" width="120" height="72" rx="16" fill="#22C55E" fill-opacity="0.13" stroke="#22C55E" stroke-opacity="0.45"/>
    <text x="1048" y="232" fill="#86EFAC" font-size="15" font-weight="800">Tools</text>
    <rect x="1012" y="304" width="120" height="72" rx="16" fill="#6366F1" fill-opacity="0.16" stroke="#818CF8" stroke-opacity="0.45"/>
    <text x="1034" y="346" fill="#C7D2FE" font-size="15" font-weight="800">Services</text>
    <rect x="1012" y="418" width="120" height="72" rx="16" fill="#F97316" fill-opacity="0.13" stroke="#FB923C" stroke-opacity="0.45"/>
    <text x="1038" y="460" fill="#FDBA74" font-size="15" font-weight="800">Metadata</text>
  </g>
</svg>
