<svg width="1200" height="420" viewBox="0 0 1200 420" fill="none" xmlns="http://www.w3.org/2000/svg">
  <defs>
    <linearGradient id="bg" x1="0" y1="0" x2="1200" y2="420" gradientUnits="userSpaceOnUse">
      <stop stop-color="#0F1117"/>
      <stop offset="0.55" stop-color="#171A2A"/>
      <stop offset="1" stop-color="#25214A"/>
    </linearGradient>
    <linearGradient id="accent" x1="260" y1="40" x2="980" y2="360" gradientUnits="userSpaceOnUse">
      <stop stop-color="#818CF8"/>
      <stop offset="0.55" stop-color="#6366F1"/>
      <stop offset="1" stop-color="#22C55E"/>
    </linearGradient>
    <filter id="glow" x="-20%" y="-20%" width="140%" height="140%">
      <feGaussianBlur stdDeviation="16" result="blur"/>
      <feColorMatrix in="blur" type="matrix" values="0 0 0 0 0.39 0 0 0 0 0.4 0 0 0 0 0.95 0 0 0 0.55 0"/>
      <feBlend in="SourceGraphic"/>
    </filter>
  </defs>
  <rect width="1200" height="420" rx="32" fill="url(#bg)"/>
  <circle cx="1020" cy="82" r="150" fill="#6366F1" opacity="0.12"/>
  <circle cx="160" cy="360" r="190" fill="#22C55E" opacity="0.08"/>
  <path d="M190 274 C330 110, 520 320, 670 170 S970 110, 1040 250" stroke="url(#accent)" stroke-width="4" opacity="0.5"/>
  <g filter="url(#glow)">
    <rect x="128" y="76" width="156" height="156" rx="36" fill="#171A2A" stroke="#6366F1" stroke-width="2"/>
    <path d="M168 170 L204 98 L240 170" stroke="#E4E6F0" stroke-width="12" stroke-linecap="round" stroke-linejoin="round"/>
    <path d="M184 142 H224" stroke="#22C55E" stroke-width="10" stroke-linecap="round"/>
    <circle cx="252" cy="104" r="10" fill="#22C55E"/>
  </g>
  <text x="330" y="120" fill="#E4E6F0" font-family="Inter,Segoe UI,Arial,sans-serif" font-size="56" font-weight="800">AIX MCP Server</text>
  <text x="332" y="168" fill="#A5B4FC" font-family="Inter,Segoe UI,Arial,sans-serif" font-size="24" font-weight="600">Agent-native MCP service registry and management platform</text>
  <text x="332" y="214" fill="#8B8FA8" font-family="Inter,Segoe UI,Arial,sans-serif" font-size="19">Plugins " Proxy " Sandbox Security " LLM Recommendations " Web Dashboard</text>
  <g font-family="Inter,Segoe UI,Arial,sans-serif" font-size="15" font-weight="700">
    <rect x="332" y="258" width="134" height="38" rx="19" fill="#22C55E" fill-opacity="0.14" stroke="#22C55E" stroke-opacity="0.45"/>
    <text x="356" y="283" fill="#86EFAC">S1-S4 Safety</text>
    <rect x="484" y="258" width="126" height="38" rx="19" fill="#6366F1" fill-opacity="0.16" stroke="#818CF8" stroke-opacity="0.45"/>
    <text x="509" y="283" fill="#C7D2FE">JSON Plugins</text>
    <rect x="628" y="258" width="140" height="38" rx="19" fill="#F97316" fill-opacity="0.13" stroke="#FB923C" stroke-opacity="0.45"/>
    <text x="653" y="283" fill="#FDBA74">LLM Search</text>
    <rect x="786" y="258" width="118" height="38" rx="19" fill="#EC4899" fill-opacity="0.12" stroke="#F472B6" stroke-opacity="0.45"/>
    <text x="815" y="283" fill="#FBCFE8">Docker</text>
  </g>
</svg>
